<svg width="208" height="50" viewBox="0 0 208 50" fill="none" xmlns="http://www.w3.org/2000/svg">
<path d="M78.5649 4.94167C77.4312 4.5125 76.1431 4.13333 76.1431 2.86667C76.1431 1.82083 77.106 1.39167 78.6858 1.39167C79.0985 1.39167 79.9405 1.45833 80.6783 1.57917C80.8825 1.6125 81.0034 1.54583 80.9701 1.3375L80.9034 0.858333C80.87 0.6 80.7992 0.379167 80.4073 0.225C80.028 0.0708333 79.3236 0 78.69 0C76.2182 0 74.655 1.15 74.655 2.97083C74.655 4.6875 75.893 5.54583 77.7646 6.21667C79.086 6.69583 80.3073 7.075 80.3073 8.46667C80.3073 9.56667 79.5195 10.15 77.8855 10.15C76.5308 10.15 75.447 9.7375 74.9302 9.56667C74.7259 9.5 74.5508 9.58333 74.5884 9.80833L74.7092 10.5458C74.7426 10.7167 74.7968 10.8875 75.0344 11.0083C75.4637 11.2333 76.6642 11.5042 77.7646 11.5042C79.8613 11.5042 81.8329 10.6625 81.8329 8.3625C81.8329 6.55833 80.6991 5.75417 78.5691 4.94583L78.5649 4.94167Z" fill="white"/>
<path d="M69.753 9.95415H64.826V6.26248H68.7943C69.0194 6.26248 69.1194 6.15832 69.1194 5.97082V5.19998C69.1194 4.95832 69.0152 4.89165 68.7943 4.89165H64.826V1.56248H69.5988C69.8405 1.56248 69.9072 1.44165 69.8572 1.22082L69.7363 0.670817C69.6488 0.312484 69.4946 0.19165 69.2195 0.19165H63.6547C63.4672 0.19165 63.3296 0.312484 63.3296 0.51665V11.0041C63.3296 11.2083 63.4505 11.3292 63.6547 11.3292H69.5112C69.7155 11.3292 69.8364 11.225 69.8906 11.0041L70.0615 10.3C70.1115 10.0958 70.0114 9.95832 69.753 9.95832V9.95415Z" fill="white"/>
<path d="M91.666 1.39167C92.2329 1.39167 93.0749 1.47917 93.796 1.59583C94.0378 1.62917 94.0878 1.49167 94.0544 1.2875L94.0044 0.908333C93.9377 0.529167 93.746 0.308333 93.4208 0.204167C93.0415 0.0833333 92.3746 0 91.7035 0C88.819 0 86.3472 1.80417 86.3472 5.85417C86.3472 9.32083 88.0645 11.5 91.7035 11.5C91.8244 11.5 92.8706 11.5 93.4875 11.275C93.8293 11.1542 93.8835 11.0167 93.9335 10.7583L94.0544 10.2083C94.1044 9.98333 93.9877 9.88333 93.7126 9.91667C93.0415 10.0042 92.5288 10.0542 92.2537 10.0542C89.9028 10.0542 87.927 9.4375 87.927 5.91667C87.927 2.87917 89.3025 1.38333 91.6701 1.38333L91.666 1.39167Z" fill="white"/>
<path d="M132.053 11.0209L128.222 0.483382C128.155 0.295882 128.035 0.175049 127.776 0.175049H126.747C126.521 0.175049 126.367 0.295882 126.301 0.483382L122.47 11.0209C122.382 11.2084 122.436 11.3125 122.674 11.3125H123.516C123.775 11.3125 123.912 11.2084 123.995 11.0209L124.908 8.39588H129.602L130.536 11.0209C130.602 11.2084 130.761 11.3125 130.982 11.3125H131.824C132.049 11.3125 132.099 11.2084 132.049 11.0209H132.053ZM125.379 7.03755L127.226 1.71672L129.122 7.03755H125.379Z" fill="white"/>
<path d="M102.962 0C99.4608 0 98.3103 2.67917 98.3103 5.87083C98.3103 8.7875 99.2732 11.5 102.862 11.5C106.451 11.5 107.602 8.75417 107.602 5.71667C107.602 2.67917 106.468 0 102.966 0H102.962ZM102.962 10.1458C100.645 10.1458 99.8359 8.325 99.8359 5.73333C99.8359 3.14167 100.645 1.2875 102.962 1.2875C105.28 1.2875 106.088 3.14167 106.088 5.73333C106.088 8.325 105.28 10.1458 102.962 10.1458Z" fill="white"/>
<path d="M118.539 9.95411H114.163V0.47911C114.163 0.29161 114.058 0.170776 113.837 0.170776H113.029C112.804 0.170776 112.704 0.29161 112.704 0.47911V10.9833C112.704 11.2083 112.808 11.3083 113.029 11.3083H118.368C118.61 11.3083 118.66 11.1874 118.71 10.9833L118.881 10.2958C118.931 10.0916 118.777 9.95411 118.539 9.95411Z" fill="white"/>
<path d="M196.004 36.3084C196.004 40.8376 199.238 42.3792 202.423 42.3792C203.519 42.3792 204.365 42.2792 205.357 41.8834C205.853 41.6834 206.053 41.3376 206.203 40.8876C206.504 39.9917 206.554 39.1459 206.554 38.4001C206.554 37.9042 206.303 37.6542 205.807 37.6542H204.611C202.519 37.6542 201.477 36.9584 201.477 34.5209L201.527 24.2209H206.704C207.15 24.2209 207.35 24.0209 207.45 23.5251C207.65 22.4292 207.8 21.4834 207.8 20.2917C207.8 19.7959 207.6 19.4959 207.104 19.4959H201.531V15.0667C201.531 14.6667 201.381 14.5709 201.035 14.5709C200.089 14.5709 199.192 14.6709 198.396 14.9209C197.8 15.1209 197.25 15.2709 196.604 15.7167C196.204 15.9667 196.058 16.3126 196.058 16.8626L196.008 36.3167L196.004 36.3084ZM181.273 36.2084C181.273 34.6167 182.469 33.6209 184.657 33.4209L187.546 33.1209V37.4001C186.55 37.9959 185.308 38.3959 183.811 38.3959C182.315 38.3959 181.273 37.6001 181.273 36.2084ZM175.845 37.3042C175.845 40.2876 178.334 42.3792 181.569 42.3792C183.957 42.3792 186.496 41.2334 187.792 38.9459V41.8792C187.792 42.2792 187.942 42.3751 188.288 42.3751C188.834 42.3751 189.68 42.2751 190.526 42.0251C191.172 41.8251 191.473 41.6751 192.219 41.2292C192.619 40.9792 192.765 40.6334 192.765 40.0834V26.9001C192.765 21.8251 189.43 18.9876 183.157 18.9876C181.064 18.9876 179.622 19.3376 178.776 19.6834C177.93 20.0334 177.284 20.6292 176.933 21.4751C176.583 22.3209 176.387 23.0667 176.337 23.8126C176.287 24.3584 176.687 24.4584 177.434 24.3084C179.426 23.9084 180.468 23.7626 181.915 23.7626C185.845 23.7626 187.538 25.3042 187.538 27.9917V28.9876L182.661 30.4292C178.08 31.7709 175.841 34.0126 175.841 37.2959L175.845 37.3042ZM156.088 41.0376C156.088 41.4834 156.288 41.6334 156.834 41.7334C157.33 41.8334 158.226 41.8834 158.826 41.8834C159.426 41.8834 160.268 41.8334 160.819 41.7334C161.365 41.6334 161.565 41.4834 161.565 41.0376V24.0209C162.461 23.3251 163.557 22.9251 164.799 22.9251C166.988 22.9251 167.784 24.3167 167.784 26.0584V41.0334C167.784 41.4792 167.984 41.6292 168.53 41.7292C169.026 41.8292 169.922 41.8792 170.522 41.8792C171.123 41.8792 171.965 41.8292 172.515 41.7292C173.061 41.6292 173.261 41.4792 173.261 41.0334V24.8126C173.261 21.4792 171.569 18.9917 167.438 18.9917C164.899 18.9917 162.411 20.6334 161.265 22.5251V19.4917C161.265 19.0917 161.115 18.9959 160.769 18.9959C160.122 18.9959 159.376 19.0959 158.53 19.3459C157.784 19.5459 157.138 19.8417 156.638 20.1417C156.238 20.3917 156.092 20.6376 156.092 21.2876V41.0376H156.088ZM140.856 25.8626C140.856 22.9751 142.799 21.8834 145.483 21.8834C146.129 21.8834 147.126 22.0334 147.922 22.2334C148.122 23.2792 148.222 24.3709 148.222 25.6167C148.222 28.1042 146.88 29.5959 144.537 29.5959C142.194 29.5959 140.852 28.2042 140.852 25.8626H140.856ZM138.368 42.7292C138.368 41.8334 139.014 40.9376 140.26 40.4917C140.956 40.6917 141.703 40.7417 142.449 40.7417H145.783C147.576 40.7417 148.472 41.1417 148.472 42.5834C148.472 44.2751 146.58 45.7667 143.495 45.7667C140.01 45.7667 138.368 44.2251 138.368 42.7334V42.7292ZM133.887 44.5709C133.887 47.8042 137.172 49.8459 142.549 49.8459C148.472 49.8459 153.449 45.7167 153.449 40.7917C153.449 37.1084 151.407 35.6167 146.73 35.6167H143.545C142.299 35.6167 141.753 35.0709 141.753 34.4709C141.753 33.8251 142.299 33.1792 144.041 33.1792C149.368 33.1792 153.099 30.5417 153.099 25.4667C153.099 20.3917 152.403 17.8542 151.557 14.7209C151.407 14.1751 151.156 14.0751 150.66 14.1751C149.514 14.3751 148.072 15.0209 147.126 15.7667C146.725 16.0667 146.53 16.2626 146.63 16.7126C146.93 18.0542 147.226 19.1501 147.476 20.1959C146.53 19.4001 145.237 19.0001 143.545 19.0001C139.364 19.0001 135.629 21.7376 135.629 26.1626C135.629 29.4959 137.522 31.8334 140.706 32.7292C138.268 33.5251 136.726 34.9667 136.726 36.8084C136.726 38.2001 137.372 39.1459 138.318 39.7417C135.283 40.7876 133.887 42.4292 133.887 44.5667V44.5709ZM121.094 36.2126C121.094 34.7709 122.041 33.6751 124.479 33.4251L127.368 33.1251V37.4042C126.371 38.0001 125.179 38.4001 123.833 38.4001C122.191 38.4001 121.094 37.6042 121.094 36.2126ZM115.667 37.3084C115.667 40.2917 118.056 42.3834 121.39 42.3834C123.779 42.3834 126.317 41.2376 127.614 38.9501V41.8834C127.614 42.2834 127.764 42.3792 128.11 42.3792C128.656 42.3792 129.502 42.2792 130.348 42.0292C130.994 41.8292 131.294 41.6792 132.04 41.2334C132.441 40.9834 132.586 40.6376 132.586 40.0876V26.9042C132.586 21.8292 129.252 18.9917 122.978 18.9917C120.89 18.9917 119.444 19.3417 118.598 19.6876C117.751 20.0334 117.105 20.6334 116.755 21.4792C116.405 22.3251 116.209 23.0709 116.159 23.8167C116.109 24.3626 116.509 24.4626 117.255 24.3126C119.248 23.9126 120.29 23.7667 121.736 23.7667C125.667 23.7667 127.359 25.3084 127.359 27.9959V28.9917L122.482 30.4334C117.901 31.7751 115.663 34.0167 115.663 37.3001L115.667 37.3084ZM100.986 37.6584V24.1251C101.983 23.3792 102.979 22.9292 104.171 22.9292C106.609 22.9292 108.302 25.1667 108.302 30.4917C108.302 36.6626 106.609 38.4501 104.121 38.4501C103.075 38.4501 101.983 38.1501 100.986 37.6542V37.6584ZM95.5133 48.8542C95.5133 49.2542 95.6633 49.3501 96.0093 49.3501C96.5053 49.3501 100.09 48.8542 100.44 48.6542C100.84 48.4042 100.986 48.1584 100.986 47.5084V40.2959C102.183 41.6876 103.775 42.3834 105.713 42.3834C110.044 42.3834 113.775 39.3501 113.775 30.3917C113.775 22.8292 110.986 19.0001 106.309 19.0001C103.971 19.0001 102.228 20.3417 100.982 22.1834V20.3417C100.982 19.8959 100.782 19.7459 100.236 19.6459C99.74 19.5459 98.8438 19.4959 98.2435 19.4959C97.6433 19.4959 96.8013 19.5459 96.2511 19.6459C95.705 19.7459 95.5049 19.8959 95.5049 20.3417V48.8501L95.5133 48.8542ZM63.4087 41.0417C63.4087 41.4876 63.6088 41.6376 64.1549 41.7376C64.6509 41.8376 65.5471 41.8876 66.1473 41.8876C66.7476 41.8876 67.5896 41.8376 68.1398 41.7376C68.6859 41.6376 68.8859 41.4876 68.8859 41.0417V24.0251C69.7821 23.3292 70.8784 22.9292 72.1206 22.9292C74.3089 22.9292 75.1051 24.3209 75.1051 26.0626V41.0376C75.1051 41.4834 75.3052 41.6334 75.8512 41.7334C76.3473 41.8334 77.2435 41.8834 77.8437 41.8834C78.4439 41.8834 79.2859 41.8334 79.8362 41.7334C80.3822 41.6334 80.5823 41.4834 80.5823 41.0376V24.8167L80.5323 24.0709C81.4785 23.3251 82.5748 22.9251 83.8169 22.9251C86.0053 22.9251 86.8015 24.3167 86.8015 26.0584V41.0334C86.8015 41.4792 87.0015 41.6292 87.5476 41.7292C88.0436 41.8292 88.9398 41.8792 89.54 41.8792C90.1403 41.8792 90.9823 41.8292 91.5325 41.7292C92.3287 41.5792 92.2786 41.3292 92.2786 41.0334V24.8126C92.2786 21.4792 90.5863 18.9917 86.4555 18.9917C83.8669 18.9917 81.4285 20.6334 80.2822 22.5251C79.5861 20.3876 77.8937 18.9917 74.7591 18.9917C72.2206 18.9917 69.7321 20.6334 68.5858 22.5251V19.4917C68.5858 19.0917 68.4358 18.9959 68.0898 18.9959C67.4437 18.9959 66.6976 19.0959 65.8514 19.3459C65.1053 19.5459 64.4592 19.8417 63.959 20.1417C63.5588 20.3917 63.4129 20.6376 63.4129 21.2876V41.0376L63.4087 41.0417ZM48.6778 36.2167C48.6778 34.6751 49.8742 33.6292 52.0625 33.4292L54.9512 33.1292V37.4084C53.955 38.0042 52.7128 38.4042 51.2164 38.4042C49.7199 38.4042 48.6778 37.6084 48.6778 36.2167ZM43.2507 37.3126C43.2507 40.2959 45.7392 42.3876 48.9738 42.3876C51.3622 42.3876 53.9008 41.2417 55.1971 38.9542V41.8876C55.1971 42.2876 55.3472 42.3834 55.6931 42.3834C56.2392 42.3834 57.0854 42.2834 57.9315 42.0334C58.4776 41.8834 58.9778 41.6334 59.6239 41.2376C60.0241 40.9876 60.1699 40.6417 60.1699 40.0917V26.9084C60.1699 21.8334 56.8353 18.9959 50.5619 18.9959C48.4736 18.9959 47.0272 19.3459 46.181 19.6917C45.3348 20.0417 44.6887 20.6376 44.3386 21.4834C43.9885 22.3292 43.7925 23.0751 43.7425 23.8209C43.6925 24.3667 44.0927 24.4667 44.8388 24.3167C46.8313 23.9167 47.8734 23.7709 49.3198 23.7709C53.2505 23.7709 54.9428 25.3126 54.9428 28.0001V28.9959L50.0659 30.4376C45.4849 31.7792 43.2465 34.0209 43.2465 37.3042L43.2507 37.3126ZM22.7925 41.0459C22.7925 41.4917 22.9925 41.6417 23.5386 41.7417C24.0346 41.8417 24.9308 41.8917 25.5311 41.8917C26.1313 41.8917 26.9733 41.8417 27.5235 41.7417C28.0696 41.6417 28.2697 41.4917 28.2697 41.0459V23.7834C29.3659 23.2876 30.6081 23.0876 32.0503 23.0876C33.9428 23.0876 35.0349 24.1334 35.0349 26.2209V41.0459C35.0349 41.4917 35.235 41.6417 35.781 41.7417C36.277 41.8417 37.1732 41.8917 37.7735 41.8917C38.3737 41.8917 39.2157 41.8417 39.7659 41.7417C40.312 41.6417 40.5121 41.4917 40.5121 41.0459V25.0751C40.5121 21.6417 38.7197 19.0042 34.3388 19.0042C32.2004 19.0042 29.8078 20.0001 28.2655 21.4917V11.8876C28.2655 11.4876 28.1154 11.3917 27.7695 11.3917C27.2734 11.3917 23.6887 11.8876 23.3385 12.0876C22.9384 12.3376 22.7925 12.5834 22.7925 13.2334V41.0459ZM0 28.5001C0 37.5542 5.47303 42.3792 12.9885 42.3792C15.1269 42.3792 17.2194 42.0292 18.5616 41.3334C19.0576 41.0834 19.3578 40.7876 19.5078 40.2376C19.7579 39.3417 20.0038 37.9001 20.0038 37.4001C20.0038 36.8542 19.6537 36.6542 19.1577 36.8042C17.6154 37.2501 16.3691 37.4001 14.2307 37.4001C9.10365 37.4001 5.5689 34.8626 5.5689 28.2959C5.5689 21.7292 9.44962 18.0459 15.0269 18.0459C16.5691 18.0459 17.9155 18.1459 19.5078 18.2959C20.0539 18.3459 20.1539 18.1459 20.1539 17.4501C20.1539 16.7542 20.0038 15.5584 19.6079 14.8126C19.2077 14.0667 18.4115 13.6167 17.1194 13.3209C16.4733 13.1709 15.0769 13.0209 14.0348 13.0209C5.97323 13.0251 0 19.6417 0 28.5001Z" fill="white"/>
</svg>
